<svg width="24" height="24" viewBox="0 0 24 24" fill="none" xmlns="http://www.w3.org/2000/svg">
<path d="M17.75 11.75C17.75 13.3413 17.1179 14.8674 15.9926 15.9926C14.8674 17.1179 13.3413 17.75 11.75 17.75C10.1587 17.75 8.63258 17.1179 7.50736 15.9926C6.38214 14.8674 5.75 13.3413 5.75 11.75C5.75 10.1587 6.38214 8.63258 7.50736 7.50736C8.63258 6.38214 10.1587 5.75 11.75 5.75C13.3413 5.75 14.8674 6.38214 15.9926 7.50736C17.1179 8.63258 17.75 10.1587 17.75 11.75Z" fill="#343841"/>
<path fill-rule="evenodd" clip-rule="evenodd" d="M11.75 1C11.9489 1 12.1397 1.07902 12.2803 1.21967C12.421 1.36032 12.5 1.55109 12.5 1.75V2.75C12.5 2.94891 12.421 3.13968 12.2803 3.28033C12.1397 3.42098 11.9489 3.5 11.75 3.5C11.5511 3.5 11.3603 3.42098 11.2197 3.28033C11.079 3.13968 11 2.94891 11 2.75V1.75C11 1.55109 11.079 1.36032 11.2197 1.21967C11.3603 1.07902 11.5511 1 11.75 1ZM4.149 4.149C4.28963 4.00855 4.48025 3.92966 4.679 3.92966C4.87775 3.92966 5.06837 4.00855 5.209 4.149L5.602 4.541C5.73869 4.68239 5.81437 4.8718 5.81276 5.06845C5.81114 5.2651 5.73235 5.45325 5.59336 5.59237C5.45437 5.73149 5.2663 5.81046 5.06965 5.81226C4.873 5.81406 4.68352 5.73855 4.542 5.602L4.149 5.209C4.00855 5.06837 3.92966 4.87775 3.92966 4.679C3.92966 4.48025 4.00855 4.28963 4.149 4.149ZM19.351 4.149C19.4914 4.28963 19.5703 4.48025 19.5703 4.679C19.5703 4.87775 19.4914 5.06837 19.351 5.209L18.958 5.602C18.8158 5.73448 18.6278 5.8066 18.4335 5.80317C18.2392 5.79975 18.0538 5.72104 17.9164 5.58362C17.779 5.44621 17.7003 5.26082 17.6968 5.06652C17.6934 4.87222 17.7655 4.68417 17.898 4.542L18.291 4.149C18.4316 4.00855 18.6222 3.92966 18.821 3.92966C19.0198 3.92966 19.2104 4.00855 19.351 4.149ZM1 11.75C1 11.5511 1.07902 11.3603 1.21967 11.2197C1.36032 11.079 1.55109 11 1.75 11H2.75C2.94891 11 3.13968 11.079 3.28033 11.2197C3.42098 11.3603 3.5 11.5511 3.5 11.75C3.5 11.9489 3.42098 12.1397 3.28033 12.2803C3.13968 12.421 2.94891 12.5 2.75 12.5H1.75C1.55109 12.5 1.36032 12.421 1.21967 12.2803C1.07902 12.1397 1 11.9489 1 11.75ZM20 11.75C20 11.5511 20.079 11.3603 20.2197 11.2197C20.3603 11.079 20.5511 11 20.75 11H21.75C21.9489 11 22.1397 11.079 22.2803 11.2197C22.421 11.3603 22.5 11.5511 22.5 11.75C22.5 11.9489 22.421 12.1397 22.2803 12.2803C22.1397 12.421 21.9489 12.5 21.75 12.5H20.75C20.5511 12.5 20.3603 12.421 20.2197 12.2803C20.079 12.1397 20 11.9489 20 11.75ZM17.898 17.898C18.0386 17.7576 18.2292 17.6787 18.428 17.6787C18.6268 17.6787 18.8174 17.7576 18.958 17.898L19.351 18.291C19.4247 18.3597 19.4838 18.4425 19.5248 18.5345C19.5658 18.6265 19.5878 18.7258 19.5896 18.8265C19.5914 18.9272 19.5728 19.0272 19.5351 19.1206C19.4974 19.214 19.4413 19.2988 19.37 19.37C19.2988 19.4413 19.214 19.4974 19.1206 19.5351C19.0272 19.5728 18.9272 19.5914 18.8265 19.5896C18.7258 19.5878 18.6265 19.5658 18.5345 19.5248C18.4425 19.4838 18.3597 19.4247 18.291 19.351L17.898 18.958C17.7576 18.8174 17.6787 18.6268 17.6787 18.428C17.6787 18.2292 17.7576 18.0386 17.898 17.898ZM5.602 17.898C5.74245 18.0386 5.82134 18.2292 5.82134 18.428C5.82134 18.6268 5.74245 18.8174 5.602 18.958L5.209 19.351C5.14034 19.4247 5.05754 19.4838 4.96554 19.5248C4.87354 19.5658 4.77423 19.5878 4.67352 19.5896C4.57282 19.5914 4.47279 19.5728 4.3794 19.5351C4.28601 19.4974 4.20118 19.4413 4.12996 19.37C4.05874 19.2988 4.0026 19.214 3.96488 19.1206C3.92716 19.0272 3.90863 18.9272 3.91041 18.8265C3.91219 18.7258 3.93423 18.6265 3.97522 18.5345C4.01621 18.4425 4.07531 18.3597 4.149 18.291L4.541 17.898C4.61065 17.8283 4.69335 17.773 4.78438 17.7353C4.8754 17.6976 4.97297 17.6782 5.0715 17.6782C5.17003 17.6782 5.2676 17.6976 5.35862 17.7353C5.44965 17.773 5.53235 17.8283 5.602 17.898ZM11.75 20C11.9489 20 12.1397 20.079 12.2803 20.2197C12.421 20.3603 12.5 20.5511 12.5 20.75V21.75C12.5 21.9489 12.421 22.1397 12.2803 22.2803C12.1397 22.421 11.9489 22.5 11.75 22.5C11.5511 22.5 11.3603 22.421 11.2197 22.2803C11.079 22.1397 11 21.9489 11 21.75V20.75C11 20.5511 11.079 20.3603 11.2197 20.2197C11.3603 20.079 11.5511 20 11.75 20Z" fill="#343841"/>
</svg>
