<svg width="24" height="24" viewBox="0 0 24 24" fill="none" xmlns="http://www.w3.org/2000/svg">
<path d="M20.743 13.3128C19.7328 13.5728 18.6723 13.5649 17.666 13.2899C16.6598 13.015 15.7426 12.4824 15.005 11.7448C14.2674 11.0072 13.7349 10.09 13.4599 9.08381C13.1849 8.07758 13.177 7.01705 13.437 6.00684C12.0805 6.06755 10.771 6.52146 9.66798 7.31326C8.56494 8.10507 7.71599 9.20058 7.22456 10.4663C6.73313 11.7321 6.62043 13.1135 6.90021 14.4422C7.17998 15.7708 7.84014 16.9895 8.80025 17.9496C9.76037 18.9097 10.979 19.5699 12.3077 19.8496C13.6364 20.1294 15.0177 20.0167 16.2835 19.5253C17.5493 19.0339 18.6448 18.1849 19.4366 17.0819C20.2284 15.9788 20.6823 14.6693 20.743 13.3128Z" fill="white"/>
<path fill-rule="evenodd" clip-rule="evenodd" d="M4.25 8.25C4.38261 8.25 4.50979 8.30268 4.60355 8.39645C4.69732 8.49021 4.75 8.61739 4.75 8.75V10.25C4.75 10.3826 4.69732 10.5098 4.60355 10.6036C4.50979 10.6973 4.38261 10.75 4.25 10.75C4.11739 10.75 3.99021 10.6973 3.89645 10.6036C3.80268 10.5098 3.75 10.3826 3.75 10.25V8.75C3.75 8.61739 3.80268 8.49021 3.89645 8.39645C3.99021 8.30268 4.11739 8.25 4.25 8.25Z" fill="white"/>
<path fill-rule="evenodd" clip-rule="evenodd" d="M3 9.5C3 9.36739 3.05268 9.24021 3.14645 9.14645C3.24021 9.05268 3.36739 9 3.5 9H5C5.13261 9 5.25979 9.05268 5.35355 9.14645C5.44732 9.24021 5.5 9.36739 5.5 9.5C5.5 9.63261 5.44732 9.75979 5.35355 9.85355C5.25979 9.94732 5.13261 10 5 10H3.5C3.36739 10 3.24021 9.94732 3.14645 9.85355C3.05268 9.75979 3 9.63261 3 9.5ZM7.25 3C7.38261 3 7.50979 3.05268 7.60355 3.14645C7.69732 3.24021 7.75 3.36739 7.75 3.5V5.5C7.75 5.63261 7.69732 5.75979 7.60355 5.85355C7.50979 5.94732 7.38261 6 7.25 6C7.11739 6 6.99021 5.94732 6.89645 5.85355C6.80268 5.75979 6.75 5.63261 6.75 5.5V3.5C6.75 3.36739 6.80268 3.24021 6.89645 3.14645C6.99021 3.05268 7.11739 3 7.25 3Z" fill="white"/>
<path fill-rule="evenodd" clip-rule="evenodd" d="M5.75 4.5C5.75 4.36739 5.80268 4.24021 5.89645 4.14645C5.99021 4.05268 6.11739 4 6.25 4H8.25C8.38261 4 8.50979 4.05268 8.60355 4.14645C8.69732 4.24021 8.75 4.36739 8.75 4.5C8.75 4.63261 8.69732 4.75979 8.60355 4.85355C8.50979 4.94732 8.38261 5 8.25 5H6.25C6.11739 5 5.99021 4.94732 5.89645 4.85355C5.80268 4.75979 5.75 4.63261 5.75 4.5Z" fill="white"/>
</svg>
