<svg width="24" height="24" viewBox="0 0 24 24" fill="none" xmlns="http://www.w3.org/2000/svg">
<path fill-rule="evenodd" clip-rule="evenodd" d="M6.5 12C6.5 11.1716 5.82842 10.5 5 10.5C4.17158 10.5 3.5 11.1716 3.5 12C3.5 12.8284 4.17158 13.5 5 13.5C5.82842 13.5 6.5 12.8284 6.5 12ZM20.5 12C20.5 11.1716 19.8284 10.5 19 10.5C18.1716 10.5 17.5 11.1716 17.5 12C17.5 12.8284 18.1716 13.5 19 13.5C19.8284 13.5 20.5 12.8284 20.5 12ZM13.5 12C13.5 11.1716 12.8284 10.5 12 10.5C11.1716 10.5 10.5 11.1716 10.5 12C10.5 12.8284 11.1716 13.5 12 13.5C12.8284 13.5 13.5 12.8284 13.5 12Z" fill="#343841"/>
</svg>
