<svg width="24" height="24" viewBox="0 0 24 24" fill="none" xmlns="http://www.w3.org/2000/svg">
<path d="M12 3C14.3869 3 16.6764 3.94791 18.3643 5.63574C20.0521 7.32357 21 9.61305 21 12C21 14.3869 20.0521 16.6764 18.3643 18.3643C16.6764 20.0521 14.3869 21 12 21C10.8181 21 9.64759 20.7667 8.55566 20.3145C7.46386 19.8622 6.47139 19.1999 5.63574 18.3643C4.8001 17.5286 4.13784 16.5361 3.68555 15.4443C3.23325 14.3524 3 13.1819 3 12C3 10.8181 3.23325 9.64759 3.68555 8.55566C4.13784 7.46386 4.8001 6.47139 5.63574 5.63574C6.47139 4.8001 7.46386 4.13784 8.55566 3.68555C9.64759 3.23325 10.8181 3 12 3ZM17.0303 8.91406C16.7374 8.62117 16.2626 8.62117 15.9697 8.91406L10.5 14.3838L8.03027 11.9141C7.73738 11.6212 7.26262 11.6212 6.96973 11.9141C6.67689 12.207 6.67685 12.6817 6.96973 12.9746L9.96973 15.9746C10.2626 16.2674 10.7374 16.2674 11.0303 15.9746L17.0303 9.97461C17.3231 9.68176 17.323 9.20696 17.0303 8.91406Z" fill="#4F5BFF"/>
</svg>
