<svg width="24" height="24" viewBox="0 0 24 24" fill="none" xmlns="http://www.w3.org/2000/svg">
<path d="M19.7917 4.5H15.5417V3.375C15.5417 2.87772 15.3551 2.40081 15.023 2.04917C14.6909 1.69754 14.2405 1.5 13.7708 1.5H10.2292C9.75951 1.5 9.30909 1.69754 8.977 2.04917C8.6449 2.40081 8.45833 2.87772 8.45833 3.375V4.5H4.20833C4.02047 4.5 3.8403 4.57902 3.70747 4.71967C3.57463 4.86032 3.5 5.05109 3.5 5.25C3.5 5.44891 3.57463 5.63968 3.70747 5.78033C3.8403 5.92098 4.02047 6 4.20833 6H4.96094L5.80208 20.2931C5.86495 21.5517 6.77604 22.5 7.92708 22.5H16.0729C17.2297 22.5 18.1227 21.5728 18.1979 20.2969L19.0391 6H19.7917C19.9795 6 20.1597 5.92098 20.2925 5.78033C20.4254 5.63968 20.5 5.44891 20.5 5.25C20.5 5.05109 20.4254 4.86032 20.2925 4.71967C20.1597 4.57902 19.9795 4.5 19.7917 4.5ZM9.1919 19.5H9.16667C8.9831 19.5001 8.80665 19.4248 8.67451 19.2899C8.54238 19.1549 8.46487 18.971 8.45833 18.7767L8.10417 8.27672C8.09747 8.07781 8.16568 7.88423 8.29379 7.73856C8.4219 7.5929 8.5994 7.50709 8.78727 7.5C8.97513 7.49291 9.15795 7.56514 9.29552 7.70078C9.43309 7.83642 9.51414 8.02437 9.52083 8.22328L9.875 18.7233C9.87837 18.8218 9.86337 18.92 9.83086 19.0124C9.79835 19.1048 9.74896 19.1894 9.68551 19.2616C9.62207 19.3337 9.54582 19.3919 9.46112 19.4328C9.37642 19.4737 9.28494 19.4966 9.1919 19.5ZM12.7083 18.75C12.7083 18.9489 12.6337 19.1397 12.5009 19.2803C12.368 19.421 12.1879 19.5 12 19.5C11.8121 19.5 11.632 19.421 11.4991 19.2803C11.3663 19.1397 11.2917 18.9489 11.2917 18.75V8.25C11.2917 8.05109 11.3663 7.86032 11.4991 7.71967C11.632 7.57902 11.8121 7.5 12 7.5C12.1879 7.5 12.368 7.57902 12.5009 7.71967C12.6337 7.86032 12.7083 8.05109 12.7083 8.25V18.75ZM14.125 4.5H9.875V3.375C9.87447 3.3256 9.88326 3.27658 9.90087 3.23083C9.91848 3.18507 9.94455 3.14351 9.97754 3.10858C10.0105 3.07364 10.0498 3.04604 10.093 3.02739C10.1362 3.00875 10.1825 2.99943 10.2292 3H13.7708C13.8175 2.99943 13.8638 3.00875 13.907 3.02739C13.9502 3.04604 13.9895 3.07364 14.0225 3.10858C14.0555 3.14351 14.0815 3.18507 14.0991 3.23083C14.1167 3.27658 14.1255 3.3256 14.125 3.375V4.5ZM15.5417 18.7767C15.5351 18.971 15.4576 19.1549 15.3255 19.2899C15.1933 19.4248 15.0169 19.5001 14.8333 19.5H14.8077C14.7147 19.4965 14.6232 19.4736 14.5386 19.4327C14.4539 19.3917 14.3777 19.3335 14.3143 19.2614C14.2509 19.1893 14.2016 19.1046 14.1691 19.0123C14.1366 18.92 14.1216 18.8218 14.125 18.7233L14.4792 8.22328C14.4825 8.12479 14.5041 8.02795 14.5427 7.9383C14.5814 7.84865 14.6364 7.76794 14.7045 7.70078C14.7726 7.63361 14.8525 7.58132 14.9397 7.54687C15.027 7.51242 15.1197 7.49649 15.2127 7.5C15.3058 7.50351 15.3972 7.52638 15.4819 7.56732C15.5666 7.60825 15.6428 7.66644 15.7062 7.73856C15.7696 7.81069 15.819 7.89533 15.8516 7.98767C15.8841 8.08001 15.8991 8.17823 15.8958 8.27672L15.5417 18.7767Z" fill="#F24B4B"/>
</svg>
