<svg width="32" height="32" viewBox="0 0 32 32" fill="none" xmlns="http://www.w3.org/2000/svg">
<path d="M7.99984 26.6667C6.53317 26.6667 5.27761 26.1445 4.23317 25.1C3.18873 24.0556 2.6665 22.8 2.6665 21.3334V10.6667C2.6665 9.20004 3.18873 7.94449 4.23317 6.90004C5.27761 5.8556 6.53317 5.33337 7.99984 5.33337H23.9998C25.4665 5.33337 26.7221 5.8556 27.7665 6.90004C28.8109 7.94449 29.3332 9.20004 29.3332 10.6667V21.3334C29.3332 22.8 28.8109 24.0556 27.7665 25.1C26.7221 26.1445 25.4665 26.6667 23.9998 26.6667H7.99984ZM7.99984 10.6667H23.9998C24.4887 10.6667 24.9554 10.7223 25.3998 10.8334C25.8443 10.9445 26.2665 11.1223 26.6665 11.3667V10.6667C26.6665 9.93337 26.4056 9.30582 25.8838 8.78404C25.3621 8.26226 24.7341 8.00093 23.9998 8.00004H7.99984C7.2665 8.00004 6.63895 8.26137 6.11717 8.78404C5.59539 9.30671 5.33406 9.93426 5.33317 10.6667V11.3667C5.73317 11.1223 6.15539 10.9445 6.59984 10.8334C7.04428 10.7223 7.51095 10.6667 7.99984 10.6667ZM5.53317 15L20.3665 18.6C20.5665 18.6445 20.7665 18.6445 20.9665 18.6C21.1665 18.5556 21.3554 18.4667 21.5332 18.3334L26.1665 14.4667C25.9221 14.1334 25.6109 13.8614 25.2332 13.6507C24.8554 13.44 24.4443 13.3343 23.9998 13.3334H7.99984C7.42206 13.3334 6.91673 13.4836 6.48384 13.784C6.05095 14.0845 5.73406 14.4898 5.53317 15Z" fill="#4F5BFF"/>
</svg>
